<?xml version="1.0" encoding="UTF-8"?>
<svg version="1.1" xmlns="http://www.w3.org/2000/svg" viewBox="350 250 500 500" width="100" height="80">
    <path d="M0 0 C0.85831421 -0.00349457 1.71662842 -0.00698914 2.60095215 -0.0105896 C13.49239888 -0.03514564 23.91510965 0.59884446 34.6875 2.3125 C36.09843084 2.49501068 37.50979332 2.6742743 38.921875 2.84765625 C68.07667703 7.22087655 96.81894213 20.20968163 120.6875 37.3125 C121.26886719 37.72709473 121.85023438 38.14168945 122.44921875 38.56884766 C130.56411024 44.42521815 137.97675908 50.96844653 145.19580078 57.88378906 C146.56915496 59.19915218 147.9539824 60.5025085 149.33984375 61.8046875 C185.71417079 96.85735653 206.79334695 148.4436953 207.86563492 198.57657814 C207.95605877 205.63678948 207.93556027 212.69648601 207.91455078 219.75708008 C207.91398532 222.44980264 207.91421828 225.14251435 207.91543579 227.8352356 C207.91647483 233.58728231 207.91030224 239.33928299 207.89896011 245.09131813 C207.88257299 253.4073662 207.87748374 261.72339244 207.87498413 270.0394549 C207.87062752 283.53795319 207.85737421 297.03642705 207.83837891 310.53491211 C207.81996705 323.63256713 207.80583666 336.73021547 207.79736328 349.82788086 C207.79683783 350.63781346 207.79631239 351.44774606 207.79577102 352.28222207 C207.79316058 356.34619016 207.79063325 360.41015829 207.78814721 364.47412646 C207.76747818 398.08693534 207.73230878 431.69971465 207.6875 465.3125 C179.47886864 465.35934161 151.27024316 465.39454823 123.06158066 465.41612434 C109.9621017 465.42641137 96.86264698 465.44042221 83.76318359 465.46337891 C72.33795125 465.48339188 60.91273647 465.49623511 49.48748708 465.50067699 C43.44497198 465.50327104 37.40250714 465.50931386 31.36000824 465.52396011 C25.65717694 465.53766933 19.95441596 465.54169606 14.25156975 465.53871536 C12.1733175 465.53925962 10.09506257 465.54315677 8.01682472 465.55091095 C-9.63791164 465.61347789 -27.09367061 464.82546279 -44.3125 460.625 C-45.40715576 460.36299805 -46.50181152 460.10099609 -47.62963867 459.83105469 C-84.31451993 450.77543518 -116.14719769 432.3992169 -143.3125 406.3125 C-143.82699707 405.82523438 -144.34149414 405.33796875 -144.87158203 404.8359375 C-152.84711878 397.26284771 -159.82712718 389.19385105 -166.3125 380.3125 C-166.72709473 379.74756836 -167.14168945 379.18263672 -167.56884766 378.60058594 C-184.89350304 354.66330941 -197.10691042 326.38465236 -202.3125 297.3125 C-202.52261719 296.31863281 -202.73273438 295.32476563 -202.94921875 294.30078125 C-205.68659256 281.00219219 -205.48320222 267.22063731 -205.515625 253.69921875 C-205.51845238 252.88488688 -205.52127975 252.070555 -205.52419281 251.2315464 C-205.53905747 246.91567302 -205.5483651 242.59983192 -205.55273438 238.28393555 C-205.55710155 234.7808989 -205.57094328 231.27811097 -205.59375 227.77514648 C-206.00721417 162.92420602 -190.99316923 107.13961192 -144.75561523 59.51904297 C-116.26232559 30.77163772 -79.45953779 12.47155992 -40.3125 3.3125 C-39.59457275 3.14266602 -38.87664551 2.97283203 -38.13696289 2.79785156 C-25.55427262 0.01524643 -12.8200924 0.01684618 0 0 Z " fill="#FDFDFE" transform="translate(572.3125,266.6875)"/>
    <path d="M0 0 C0.78213867 0.22574707 1.56427734 0.45149414 2.37011719 0.68408203 C35.82270844 10.46262878 62.71136267 30.76984472 79.68725586 61.47338867 C89.69870468 80.13604631 94.17511674 99.16796002 94.11352539 120.30078125 C94.11367142 121.61868149 94.11381744 122.93658173 94.1139679 124.29441833 C94.11425337 127.88681908 94.10839709 131.47918605 94.10139394 135.07157898 C94.09511875 138.83385036 94.09455332 142.59612263 94.09336853 146.35839844 C94.09026746 153.47320727 94.08207064 160.58800062 94.07201904 167.70280266 C94.06081981 175.80682217 94.05533787 183.91084245 94.05032361 192.01486778 C94.03988694 208.67658899 94.02155675 225.3382889 94 242 C104.56 242 115.12 242 126 242 C126 255.53 126 269.06 126 283 C102.24 283 78.48 283 54 283 C53.9906543 277.84834229 53.98130859 272.69668457 53.97167969 267.38891602 C53.93784742 250.32974174 53.88246245 233.27068708 53.81609726 216.21160984 C53.77639925 205.87308578 53.74396003 195.53463683 53.72900391 185.19604492 C53.7159393 176.17801205 53.68885286 167.16014506 53.64538693 158.14220566 C53.62287969 153.37352366 53.60708282 148.60504544 53.60811615 143.83630562 C53.60886917 139.33410888 53.59066463 134.83236076 53.55883217 130.3302803 C53.55041707 128.69102086 53.54852504 127.05171058 53.55419731 125.41243935 C53.59616037 111.40296625 52.07891237 97.05048012 45.1875 84.5625 C44.84420654 83.90910645 44.50091309 83.25571289 44.1472168 82.58251953 C32.54799578 60.97440088 14.71922582 47.07893826 -8.625 40 C-29.40150905 34.29856052 -51.21670578 38.01358055 -70 48 C-89.16607405 58.9386353 -102.46735402 75.92830048 -108.89453125 96.921875 C-110.95640857 104.60059052 -111.86400723 112.0480506 -113 120 C-126.2 120 -139.4 120 -153 120 C-153 85.61211251 -139.77178027 55.98213786 -115.875 31.5 C-86.74966615 2.52248905 -40.02078298 -12.04051394 0 0 Z " fill="#5068A9" transform="translate(603,366)"/>
    <path d="M0 0 C7.57391556 5.2519125 13.17051985 12.89618298 14.96875 22.05859375 C15.75104114 33.61103266 13.9356719 42.65725317 6.96875 52.05859375 C1.00184818 58.58445592 -6.78252082 62.70867847 -15.60546875 63.296875 C-23.45586884 63.50956352 -30.26634351 63.4943835 -37.03125 59.05859375 C-37.81113281 58.54941406 -38.59101562 58.04023437 -39.39453125 57.515625 C-47.27752537 51.87754246 -52.10760592 44.6033926 -54.03125 35.05859375 C-55.21947193 24.89994908 -53.31031452 16.46543485 -47.609375 7.9296875 C-35.58213643 -7.03969814 -16.19155723 -9.22844489 0 0 Z " fill="#5068A9" transform="translate(593.03125,495.94140625)"/>
</svg>