<svg width="21" height="21" viewBox="0 0 21 21" fill="none" xmlns="http://www.w3.org/2000/svg">
<g clip-path="url(#clip0_330_116)">
<path fill-rule="evenodd" clip-rule="evenodd" d="M5.66667 2.64286C5.33515 2.64286 5.0172 2.77456 4.78278 3.00898C4.54837 3.2434 4.41667 3.56135 4.41667 3.89286V13.7576C4.80369 13.574 5.23013 13.4762 5.66667 13.4762H16.0833V2.64286H5.66667ZM17.75 2.64286C17.75 2.20084 17.5744 1.77691 17.2618 1.46435C16.9492 1.15179 16.5253 0.976196 16.0833 0.976196H5.66667C4.89312 0.976196 4.15125 1.28349 3.60427 1.83047C3.05729 2.37745 2.75 3.11931 2.75 3.89286V16.3929C2.75 17.1664 3.05729 17.9083 3.60427 18.4553C4.15125 19.0022 4.89312 19.3095 5.66667 19.3095H16.0833C16.5253 19.3095 16.9492 19.1339 17.2618 18.8214C17.5744 18.5088 17.75 18.0849 17.75 17.6429V2.64286ZM16.0833 15.1429H5.66667C5.33515 15.1429 5.0172 15.2745 4.78278 15.5089C4.54837 15.7434 4.41667 16.0614 4.41667 16.3929C4.41667 16.7244 4.54837 17.0424 4.78278 17.2768C5.0172 17.5112 5.33515 17.6429 5.66667 17.6429H16.0833V15.1429Z" />
</g>
<defs>
<clipPath id="clip0_330_116">
<rect width="20" height="20" fill="white" transform="translate(0.25 0.142822)"/>
</clipPath>
</defs>
</svg>
