<svg width="21" height="21" viewBox="0 0 21 21" fill="none" xmlns="http://www.w3.org/2000/svg">
<g clip-path="url(#clip0_330_72)">
<path fill-rule="evenodd" clip-rule="evenodd" d="M7.04692 9.24978C7.50047 8.6907 8.18025 8.4762 8.83366 8.4762H11.3337C11.9967 8.4762 12.6326 8.73961 13.1014 9.20845C13.5702 9.67728 13.8337 10.3131 13.8337 10.9762C13.8337 11.6393 13.5702 12.2751 13.1014 12.7439C12.6326 13.2128 11.9967 13.4762 11.3337 13.4762H9.66699C9.20674 13.4762 8.83366 13.1031 8.83366 12.6429C8.83366 12.1826 9.20674 11.8095 9.66699 11.8095H11.3337C11.5547 11.8095 11.7667 11.7217 11.9229 11.5654C12.0792 11.4092 12.167 11.1972 12.167 10.9762C12.167 10.7552 12.0792 10.5432 11.9229 10.3869C11.7667 10.2307 11.5547 10.1429 11.3337 10.1429H8.83366C8.50984 10.1429 8.38093 10.2465 8.33366 10.3095C8.30696 10.3451 8.27746 10.3785 8.24544 10.4094L3.57877 14.9094C3.24747 15.2289 2.71992 15.2193 2.40046 14.8879C2.08099 14.5567 2.09058 14.0291 2.42188 13.7097L7.04692 9.24978Z" />
<path fill-rule="evenodd" clip-rule="evenodd" d="M15.4722 8.27615C15.9541 7.8222 16.5963 7.57774 17.2582 7.59646C17.9214 7.6152 18.55 7.89663 19.0057 8.37884C19.4614 8.86103 19.7068 9.50453 19.6881 10.1678C19.6694 10.83 19.3887 11.4578 18.9077 11.9134L18.9058 11.9152L15.1011 15.5544C14.3398 16.4062 13.2764 16.8095 12.1667 16.8095H8.83334C8.50954 16.8095 8.38062 16.9132 8.33334 16.9762C8.29857 17.0226 8.25905 17.0652 8.21544 17.1034L6.8821 18.27C6.53574 18.5731 6.00927 18.538 5.7062 18.1916C5.40313 17.8453 5.43823 17.3188 5.78459 17.0158L7.06122 15.8987C7.51468 15.3528 8.18692 15.1429 8.83334 15.1429H12.1667C12.8776 15.1429 13.4692 14.8889 13.8728 14.4274C13.8891 14.4089 13.9062 14.391 13.924 14.374L17.7573 10.7074C17.7573 10.7074 17.7598 10.705 17.761 10.7039C17.9219 10.5518 18.0158 10.342 18.0221 10.1206C18.0283 9.89928 17.9464 9.68453 17.7943 9.52361C17.6423 9.36261 17.4324 9.26869 17.2111 9.26244C16.9898 9.25619 16.775 9.33811 16.6141 9.49019C16.6123 9.49186 16.6105 9.49353 16.6088 9.49519L13.1088 12.7452C12.7715 13.0584 12.2442 13.0389 11.931 12.7016C11.6178 12.3644 11.6374 11.837 11.9747 11.5239L15.4722 8.27615Z" />
<path fill-rule="evenodd" clip-rule="evenodd" d="M1.57708 12.8869C1.90253 12.5615 2.43016 12.5615 2.7556 12.8869L7.7556 17.8869C8.08103 18.2123 8.08103 18.74 7.7556 19.0654C7.43016 19.3908 6.90253 19.3908 6.57708 19.0654L1.57708 14.0654C1.25165 13.74 1.25165 13.2123 1.57708 12.8869Z" />
<path fill-rule="evenodd" clip-rule="evenodd" d="M13.833 6.05961C12.9586 6.05961 12.2497 6.76849 12.2497 7.64294C12.2497 8.51736 12.9586 9.22628 13.833 9.22628C14.7074 9.22628 15.4163 8.51736 15.4163 7.64294C15.4163 6.76849 14.7074 6.05961 13.833 6.05961ZM10.583 7.64294C10.583 5.84802 12.0381 4.39294 13.833 4.39294C15.6279 4.39294 17.083 5.84802 17.083 7.64294C17.083 9.43786 15.6279 10.8929 13.833 10.8929C12.0381 10.8929 10.583 9.43786 10.583 7.64294Z"/>
<path fill-rule="evenodd" clip-rule="evenodd" d="M5.50033 2.64286C4.57985 2.64286 3.83366 3.38905 3.83366 4.30953C3.83366 5.23 4.57985 5.9762 5.50033 5.9762C6.4208 5.9762 7.16699 5.23 7.16699 4.30953C7.16699 3.38905 6.4208 2.64286 5.50033 2.64286ZM2.16699 4.30953C2.16699 2.46858 3.65938 0.976196 5.50033 0.976196C7.34128 0.976196 8.83366 2.46858 8.83366 4.30953C8.83366 6.15048 7.34128 7.64286 5.50033 7.64286C3.65938 7.64286 2.16699 6.15048 2.16699 4.30953Z" />
</g>
<defs>
<clipPath id="clip0_330_72">
<rect width="20" height="20" fill="white" transform="translate(0.5 0.142822)"/>
</clipPath>
</defs>
</svg>
