<svg width="21" height="21" viewBox="0 0 21 21" fill="none" xmlns="http://www.w3.org/2000/svg">
<path fill-rule="evenodd" clip-rule="evenodd" d="M2.8034 13.0299C3.5848 12.2484 4.64461 11.8094 5.74967 11.8094H10.7497C11.8548 11.8094 12.9146 12.2484 13.6959 13.0299C14.4773 13.8112 14.9163 14.871 14.9163 15.9761V17.6428C14.9163 18.103 14.5433 18.4761 14.083 18.4761C13.6228 18.4761 13.2497 18.103 13.2497 17.6428V15.9761C13.2497 15.3131 12.9863 14.6772 12.5174 14.2084C12.0486 13.7395 11.4127 13.4761 10.7497 13.4761H5.74967C5.08663 13.4761 4.45075 13.7395 3.98191 14.2084C3.51307 14.6772 3.24967 15.3131 3.24967 15.9761V17.6428C3.24967 18.103 2.87657 18.4761 2.41634 18.4761C1.95611 18.4761 1.58301 18.103 1.58301 17.6428V15.9761C1.58301 14.871 2.02199 13.8112 2.8034 13.0299Z" />
<path fill-rule="evenodd" clip-rule="evenodd" d="M8.24967 3.47611C6.86897 3.47611 5.74967 4.59541 5.74967 5.97611C5.74967 7.35682 6.86897 8.47611 8.24967 8.47611C9.63042 8.47611 10.7497 7.35682 10.7497 5.97611C10.7497 4.59541 9.63042 3.47611 8.24967 3.47611ZM4.08301 5.97611C4.08301 3.67493 5.94849 1.80945 8.24967 1.80945C10.5508 1.80945 12.4163 3.67493 12.4163 5.97611C12.4163 8.2773 10.5508 10.1428 8.24967 10.1428C5.94849 10.1428 4.08301 8.2773 4.08301 5.97611Z" />
<path fill-rule="evenodd" clip-rule="evenodd" d="M15.7767 12.5429C15.8917 12.0973 16.3463 11.8293 16.7918 11.9444C17.6858 12.1751 18.4777 12.6963 19.0433 13.426C19.6088 14.1556 19.9162 15.0524 19.9168 15.9756V17.6429C19.9168 18.1031 19.5438 18.4762 19.0835 18.4762C18.6233 18.4762 18.2502 18.1031 18.2502 17.6429V15.9766C18.2497 15.4227 18.0653 14.8847 17.726 14.4471C17.3867 14.0093 16.9115 13.6966 16.3752 13.5581C15.9296 13.4431 15.6616 12.9886 15.7767 12.5429Z" />
<path fill-rule="evenodd" clip-rule="evenodd" d="M13.2762 2.54456C13.3904 2.09871 13.8444 1.82981 14.2902 1.94396C15.1865 2.17345 15.9809 2.6947 16.5482 3.42554C17.1155 4.15638 17.4234 5.05525 17.4234 5.98042C17.4234 6.90561 17.1155 7.80446 16.5482 8.53532C15.9809 9.26616 15.1865 9.7874 14.2902 10.0169C13.8444 10.1311 13.3904 9.86215 13.2762 9.41632C13.1621 8.9704 13.431 8.51649 13.8769 8.4023C14.4146 8.26461 14.8912 7.95186 15.2316 7.51336C15.572 7.07485 15.7567 6.53553 15.7567 5.98042C15.7567 5.42532 15.572 4.886 15.2316 4.4475C14.8912 4.00899 14.4146 3.69624 13.8769 3.55855C13.431 3.4444 13.1621 2.99041 13.2762 2.54456Z" />
</svg>
