<svg width="21" height="21" viewBox="0 0 21 21" fill="none" xmlns="http://www.w3.org/2000/svg">
<path fill-rule="evenodd" clip-rule="evenodd" d="M18.2904 10.5963C15.9171 8.55587 12.8856 7.44339 9.75593 7.46432C9.29568 7.4674 8.92009 7.09681 8.91701 6.63658C8.91393 6.17636 9.28451 5.80077 9.74476 5.79769C13.277 5.77407 16.6984 7.02964 19.3769 9.33244C19.7259 9.63244 19.7656 10.1586 19.4656 10.5076C19.1655 10.8566 18.6393 10.8963 18.2904 10.5963Z" />
<path fill-rule="evenodd" clip-rule="evenodd" d="M10.9978 10.0457C11.3671 10.3205 11.4437 10.8426 11.169 11.2118C10.2422 12.4575 9.06947 13.4994 7.72331 14.2731C6.37719 15.0467 4.88646 15.5355 3.3436 15.7091C2.88625 15.7606 2.47377 15.4316 2.4223 14.9742C2.37082 14.5169 2.69985 14.1044 3.1572 14.0529C4.47317 13.9048 5.74467 13.4879 6.89284 12.8281C8.041 12.1681 9.0413 11.2794 9.8318 10.217C10.1066 9.84772 10.6286 9.77106 10.9978 10.0457Z" />
<path fill-rule="evenodd" clip-rule="evenodd" d="M14.9095 11.3222C15.3102 11.5486 15.4515 12.0569 15.2251 12.4576C13.4708 15.5627 10.6424 17.9197 7.27194 19.0853C6.83698 19.2357 6.36243 19.005 6.21201 18.5701C6.06159 18.1351 6.29224 17.6606 6.7272 17.5101C9.71361 16.4774 12.2196 14.3889 13.774 11.6378C14.0004 11.2371 14.5088 11.0958 14.9095 11.3222Z" />
<path fill-rule="evenodd" clip-rule="evenodd" d="M10.8132 1.60884C11.2396 1.78185 11.4451 2.26785 11.2721 2.69432C10.3289 5.01897 10.2731 7.6033 11.1044 9.95869C12.4621 10.1824 13.77 10.6481 14.9654 11.3351C16.3086 12.1071 17.4819 13.1424 18.4151 14.3791C18.6923 14.7465 18.6192 15.269 18.2518 15.5463C17.8844 15.8234 17.3618 15.7504 17.0847 15.3829C16.2868 14.3255 15.2834 13.4402 14.1349 12.7802C12.9864 12.1201 11.7164 11.6989 10.4011 11.5419C10.0997 11.5059 9.84177 11.3089 9.72768 11.0277C8.56213 8.15474 8.56213 4.94067 9.72768 2.06775C9.90068 1.64128 10.3867 1.43581 10.8132 1.60884Z" />
<path fill-rule="evenodd" clip-rule="evenodd" d="M5.91249 3.06362C6.3639 3.15331 6.65714 3.59195 6.56745 4.04336C5.95504 7.12589 6.48374 10.3259 8.05512 13.0476C8.28524 13.4462 8.14867 13.9559 7.7501 14.186C7.35152 14.4161 6.84186 14.2796 6.61174 13.881C4.83825 10.8092 4.24155 7.19757 4.93274 3.71859C5.02242 3.26717 5.46107 2.97393 5.91249 3.06362Z" />
<path fill-rule="evenodd" clip-rule="evenodd" d="M10.4997 3.2144C6.35754 3.2144 2.99967 6.57226 2.99967 10.7144C2.99967 14.8566 6.35754 18.2144 10.4997 18.2144C14.6418 18.2144 17.9997 14.8566 17.9997 10.7144C17.9997 6.57226 14.6418 3.2144 10.4997 3.2144ZM1.33301 10.7144C1.33301 5.65179 5.43707 1.54773 10.4997 1.54773C15.5623 1.54773 19.6663 5.65179 19.6663 10.7144C19.6663 15.777 15.5623 19.8811 10.4997 19.8811C5.43707 19.8811 1.33301 15.777 1.33301 10.7144Z" />
</svg>
