<svg width="24" height="24" viewBox="0 0 24 24" fill="none" xmlns="http://www.w3.org/2000/svg">
<path fill-rule="evenodd" clip-rule="evenodd" d="M10.0492 6.09211C8.95365 5.89789 7.82562 6.01216 6.79122 6.42213C5.75681 6.83211 4.85678 7.52165 4.19171 8.4137C3.52664 9.30575 3.12272 10.3652 3.02509 11.4736C2.92747 12.582 3.13998 13.6957 3.63888 14.6902C4.13778 15.6848 4.90341 16.5211 5.85022 17.1055C6.79696 17.69 7.88756 17.9997 9.00016 18C9.00007 18 9.00024 18 9.00016 18H17.5001C18.4284 18 19.3186 17.6313 19.975 16.9749C20.6314 16.3185 21.0001 15.4283 21.0001 14.5C21.0001 13.5717 20.6314 12.6815 19.975 12.0251C19.3186 11.3688 18.4284 11 17.5001 11H15.7101C15.2679 11 14.8782 10.7095 14.7518 10.2857C14.4339 9.21941 13.8258 8.26251 12.9953 7.52195C12.1649 6.78139 11.1448 6.28633 10.0492 6.09211ZM6.0543 4.56284C7.43351 4.01621 8.93755 3.86386 10.3983 4.12282C11.8591 4.38178 13.2192 5.04185 14.3264 6.02926C15.2448 6.84821 15.9592 7.86557 16.4181 9H17.5001C18.9588 9 20.3578 9.57947 21.3892 10.6109C22.4207 11.6424 23.0001 13.0413 23.0001 14.5C23.0001 15.9587 22.4207 17.3576 21.3892 18.3891C20.3578 19.4205 18.9588 20 17.5001 20H8.9999C7.51632 19.9996 6.06206 19.5867 4.79965 18.8074C3.53723 18.0281 2.51638 16.9131 1.85118 15.587C1.18598 14.2609 0.902639 12.7759 1.03281 11.2981C1.16298 9.82022 1.70153 8.40767 2.5883 7.21827C3.47506 6.02887 4.6751 5.10948 6.0543 4.56284Z" />
</svg>
