<svg width="24" height="24" viewBox="0 0 24 24" fill="none" xmlns="http://www.w3.org/2000/svg">
<path fill-rule="evenodd" clip-rule="evenodd" d="M11.1952 4.41771C10.3477 4.08499 9.43566 3.94949 8.52808 4.02147C7.6205 4.09345 6.74121 4.37102 5.95679 4.83316C5.17238 5.2953 4.50342 5.92989 4.00059 6.68886C3.49776 7.44783 3.17424 8.31128 3.05453 9.2138C2.93483 10.1163 3.02208 11.0343 3.30968 11.8981C3.59728 12.7619 4.07769 13.5489 4.71451 14.1995C5.10082 14.5942 5.09402 15.2274 4.69933 15.6137C4.30464 16 3.67151 15.9932 3.2852 15.5985C2.4361 14.731 1.79556 13.6816 1.41209 12.5299C1.02863 11.3781 0.912289 10.1542 1.07189 8.95084C1.2315 7.74747 1.66286 6.59621 2.33331 5.58425C3.00375 4.57229 3.89569 3.72617 4.94158 3.10998C5.98746 2.4938 7.15986 2.1237 8.36996 2.02773C9.58006 1.93176 10.7962 2.11243 11.9261 2.55605C13.056 2.99968 14.0702 3.69462 14.8918 4.58825C15.5422 5.29573 16.0584 6.11304 16.4176 7.00002H17.4998C18.6798 6.99991 19.8287 7.37933 20.7765 8.08222C21.7244 8.78515 22.4211 9.7743 22.7636 10.9036C23.1061 12.0328 23.0764 13.2423 22.6787 14.3534C22.2811 15.4644 21.5366 16.4181 20.5553 17.0736C20.0961 17.3803 19.4751 17.2567 19.1683 16.7975C18.8616 16.3382 18.9852 15.7172 19.4444 15.4105C20.0689 14.9934 20.5426 14.3865 20.7957 13.6794C21.0487 12.9724 21.0677 12.2027 20.8497 11.4841C20.6317 10.7655 20.1884 10.136 19.5852 9.6887C18.982 9.24138 18.2509 8.99993 17.5 9.00002H15.7099C15.2678 9.00002 14.8782 8.70973 14.7517 8.28611C14.4912 7.41374 14.0356 6.61208 13.4194 5.94186C12.8033 5.27164 12.0426 4.75043 11.1952 4.41771Z" fill="black"/>
<path fill-rule="evenodd" clip-rule="evenodd" d="M12.5939 14.0809C13.1015 14.2984 13.3367 14.8863 13.1191 15.3939L10.1191 22.3939C9.90155 22.9016 9.31367 23.1367 8.80604 22.9192C8.29841 22.7016 8.06326 22.1137 8.28082 21.6061L11.2808 14.6061C11.4984 14.0985 12.0863 13.8633 12.5939 14.0809Z" fill="black"/>
<path fill-rule="evenodd" clip-rule="evenodd" d="M9.39393 12.0809C9.90156 12.2984 10.1367 12.8863 9.91916 13.3939L6.91916 20.3939C6.7016 20.9016 6.11372 21.1367 5.60609 20.9192C5.09846 20.7016 4.86331 20.1137 5.08087 19.6061L8.08087 12.6061C8.29842 12.0985 8.8863 11.8633 9.39393 12.0809Z" fill="black"/>
<path fill-rule="evenodd" clip-rule="evenodd" d="M17.3939 12.0809C17.9016 12.2984 18.1367 12.8863 17.9192 13.3939L14.9192 20.3939C14.7016 20.9016 14.1137 21.1367 13.6061 20.9192C13.0985 20.7016 12.8633 20.1137 13.0809 19.6061L16.0809 12.6061C16.2984 12.0985 16.8863 11.8633 17.3939 12.0809Z" fill="black"/>
</svg>
