<svg width="24" height="24" viewBox="0 0 24 24" fill="none" xmlns="http://www.w3.org/2000/svg">
<path fill-rule="evenodd" clip-rule="evenodd" d="M12 9C10.3431 9 9 10.3431 9 12C9 13.6569 10.3431 15 12 15C13.6569 15 15 13.6569 15 12C15 10.3431 13.6569 9 12 9ZM7 12C7 9.23858 9.23858 7 12 7C14.7614 7 17 9.23858 17 12C17 14.7614 14.7614 17 12 17C9.23858 17 7 14.7614 7 12Z" />
<path fill-rule="evenodd" clip-rule="evenodd" d="M12 1C12.5523 1 13 1.44772 13 2V4C13 4.55228 12.5523 5 12 5C11.4477 5 11 4.55228 11 4V2C11 1.44772 11.4477 1 12 1Z" />
<path fill-rule="evenodd" clip-rule="evenodd" d="M12 19C12.5523 19 13 19.4477 13 20V22C13 22.5523 12.5523 23 12 23C11.4477 23 11 22.5523 11 22V20C11 19.4477 11.4477 19 12 19Z" />
<path fill-rule="evenodd" clip-rule="evenodd" d="M4.22282 4.22282C4.61335 3.8323 5.24651 3.8323 5.63704 4.22282L7.04704 5.63283C7.43756 6.02335 7.43756 6.65651 7.04704 7.04704C6.65651 7.43756 6.02335 7.43756 5.63283 7.04704L4.22282 5.63704C3.8323 5.24651 3.8323 4.61335 4.22282 4.22282Z" />
<path fill-rule="evenodd" clip-rule="evenodd" d="M16.9528 16.9528C17.3433 16.5623 17.9765 16.5623 18.367 16.9528L19.777 18.3628C20.1675 18.7533 20.1675 19.3865 19.777 19.777C19.3865 20.1675 18.7533 20.1675 18.3628 19.777L16.9528 18.367C16.5623 17.9765 16.5623 17.3433 16.9528 16.9528Z" />
<path fill-rule="evenodd" clip-rule="evenodd" d="M1 12C1 11.4477 1.44772 11 2 11H4C4.55228 11 5 11.4477 5 12C5 12.5523 4.55228 13 4 13H2C1.44772 13 1 12.5523 1 12Z" />
<path fill-rule="evenodd" clip-rule="evenodd" d="M19 12C19 11.4477 19.4477 11 20 11H22C22.5523 11 23 11.4477 23 12C23 12.5523 22.5523 13 22 13H20C19.4477 13 19 12.5523 19 12Z" />
<path fill-rule="evenodd" clip-rule="evenodd" d="M7.04704 16.9528C7.43756 17.3433 7.43756 17.9765 7.04704 18.367L5.63704 19.777C5.24651 20.1675 4.61335 20.1675 4.22282 19.777C3.8323 19.3865 3.8323 18.7533 4.22283 18.3628L5.63283 16.9528C6.02335 16.5623 6.65651 16.5623 7.04704 16.9528Z" />
<path fill-rule="evenodd" clip-rule="evenodd" d="M19.777 4.22282C20.1675 4.61335 20.1675 5.24651 19.777 5.63704L18.367 7.04704C17.9765 7.43756 17.3433 7.43756 16.9528 7.04704C16.5623 6.65651 16.5623 6.02335 16.9528 5.63283L18.3628 4.22283C18.7533 3.8323 19.3865 3.8323 19.777 4.22282Z" />
</svg>
